<?xml version="1.0" standalone="no"?>
<!DOCTYPE svg PUBLIC "-//W3C//DTD SVG 20010904//EN"
 "http://www.w3.org/TR/2001/REC-SVG-20010904/DTD/svg10.dtd">
<svg version="1.0" xmlns="http://www.w3.org/2000/svg"
 width="300.000000pt" height="225.000000pt" viewBox="0 0 300.000000 225.000000"
 preserveAspectRatio="xMidYMid meet">
<metadata>
Created by potrace 1.10, written by Peter Selinger 2001-2011
</metadata>
<g transform="translate(0.000000,225.000000) scale(0.100000,-0.100000)"
fill="#000000" stroke="none">
<path d="M1462 1788 c-11 -11 -24 -14 -82 -18 -18 -2 -20 -4 -7 -7 20 -5 22
-14 6 -30 -8 -8 -18 -8 -34 -1 -38 17 -72 3 -77 -32 -3 -16 -1 -30 4 -30 4 0
8 11 8 25 0 28 37 43 65 27 29 -16 -44 -64 -102 -68 -46 -3 -70 -21 -53 -38
18 -18 11 -32 -16 -34 -30 -2 -54 -19 -54 -36 0 -6 7 -3 14 7 15 19 36 23 36
6 0 -8 5 -8 15 1 12 10 15 10 15 -1 1 -10 4 -9 11 3 6 11 16 15 26 11 12 -5
10 0 -5 15 -27 27 -28 38 -3 52 26 14 31 13 25 -5 -4 -8 -10 -13 -14 -10 -5 3
-12 0 -16 -6 -5 -8 -3 -9 6 -4 10 6 12 4 7 -8 -4 -11 -1 -17 8 -17 8 0 14 3
12 8 -2 7 39 52 49 52 3 0 2 -6 -1 -12 -4 -7 6 1 22 19 15 17 37 33 48 35 11
2 22 12 25 23 3 11 16 21 28 23 27 4 29 -18 2 -25 -11 -3 -17 -9 -14 -14 3 -5
14 -4 26 2 11 6 31 9 43 6 17 -3 25 1 28 15 3 10 1 15 -4 12 -5 -3 -26 0 -45
6 -26 9 -32 15 -23 21 7 4 17 5 21 3 4 -3 8 0 8 5 0 22 27 10 66 -26 21 -21
32 -30 25 -20 -7 9 -9 17 -4 17 15 0 33 -23 33 -42 0 -10 5 -18 11 -18 8 0 8
-5 -1 -15 -9 -11 -9 -15 -1 -15 7 0 9 -5 6 -11 -4 -5 1 -19 11 -30 17 -18 16
-19 -14 -19 -17 0 -34 -4 -37 -10 -6 -10 -4 -11 54 -14 41 -2 82 -44 104 -107
8 -24 30 -84 47 -133 36 -97 42 -154 21 -180 -16 -19 -57 -21 -68 -3 -4 8 -21
22 -36 32 l-28 18 12 -26 c7 -15 23 -34 36 -42 12 -9 23 -20 23 -25 0 -12 -65
-40 -103 -45 -16 -2 -35 -9 -43 -16 -8 -6 -35 -12 -61 -13 -43 -1 -75 -21 -36
-22 10 -1 30 -4 46 -9 22 -6 27 -4 27 11 0 16 2 17 10 4 6 -10 10 -11 10 -3 0
7 12 16 28 19 15 4 32 11 39 16 6 5 26 10 43 10 22 1 35 8 42 22 5 12 21 30
35 40 l26 19 -5 -24 c-3 -13 -11 -53 -17 -89 -22 -116 -31 -139 -58 -157 -33
-22 -87 -22 -111 0 -24 22 -50 24 -32 3 18 -22 110 -47 131 -35 28 15 37 11
37 -17 0 -15 5 -30 12 -34 6 -4 10 -9 9 -11 -4 -5 29 -89 35 -89 3 0 -4 25
-15 57 -22 64 -24 117 -8 212 20 120 13 110 59 98 22 -6 40 -15 40 -19 0 -25
117 7 126 34 9 29 78 22 82 -8 3 -24 71 -83 101 -89 14 -3 19 2 18 16 -1 10
-8 19 -17 19 -8 1 -26 7 -40 15 -22 12 -23 14 -7 20 20 8 69 -9 109 -39 22
-16 32 -17 50 -8 23 11 23 11 -4 11 -15 1 -30 6 -34 12 -9 15 -91 49 -117 49
-12 0 -31 10 -41 23 -15 17 -28 21 -55 19 -29 -3 -38 1 -46 19 -9 20 -19 23
-78 27 -52 3 -74 0 -94 -13 -26 -17 -26 -17 -19 6 4 13 11 47 16 76 12 76 44
126 97 153 24 12 47 29 50 37 5 11 10 10 28 -7 17 -16 24 -18 28 -8 4 10 6 10
6 -1 2 -25 31 9 31 37 0 24 -1 25 -20 7 -18 -16 -21 -17 -45 -1 -24 16 -26 15
-47 -9 -12 -14 -29 -25 -39 -25 -10 0 -24 -7 -33 -15 -8 -9 -21 -14 -28 -13
-7 2 -12 -4 -10 -13 1 -9 -5 -22 -13 -29 -12 -10 -13 -15 -3 -28 12 -13 10
-14 -9 -2 -17 11 -19 17 -11 27 8 10 6 18 -6 31 -20 23 -22 56 -2 49 10 -4 12
0 9 14 -6 23 -7 23 -29 2 -16 -16 -16 -16 -9 7 5 14 8 35 7 47 -1 16 3 21 13
17 18 -7 19 -16 3 -32 -8 -8 -8 -12 -1 -12 11 0 23 22 23 41 0 5 -6 9 -13 9
-18 0 -63 50 -70 78 -7 32 26 30 41 -3 6 -14 16 -25 21 -25 6 0 1 16 -10 35
-12 20 -29 35 -39 35 -10 0 -26 3 -36 7 -13 5 -16 3 -12 -8 3 -8 9 -22 13 -31
12 -31 -19 -20 -33 10 -7 16 -23 34 -36 41 -15 9 -23 22 -24 42 -1 24 3 29 22
29 13 0 30 -8 37 -17 12 -15 12 -16 -3 -10 -31 11 -28 -9 5 -28 18 -10 27 -12
20 -5 -10 11 -9 16 4 26 15 10 13 14 -17 33 -19 11 -43 21 -52 21 -10 0 -18 5
-18 12 0 6 -8 20 -17 30 -16 18 -16 19 3 12 15 -5 16 -4 4 5 -20 14 -30 14
-30 -1 0 -7 -4 -19 -9 -27 -8 -12 -15 -9 -41 12 -36 30 -41 32 -58 15z m498
-674 c14 3 20 3 13 0 -7 -3 -10 -11 -7 -18 4 -10 -8 -12 -50 -8 -41 3 -62 0
-81 -12 -41 -27 -48 -15 -15 26 18 24 23 25 67 16 27 -5 59 -6 73 -4z m-12
-51 c18 -4 20 -8 10 -14 -27 -17 -108 -8 -108 12 0 10 63 12 98 2z"/>
<path d="M1629 1788 c7 -9 10 -21 8 -25 -3 -5 10 -7 29 -5 18 2 31 8 29 13 -3
4 -12 6 -21 2 -8 -3 -25 3 -37 13 -17 15 -19 15 -8 2z"/>
<path d="M1502 1666 c-19 -10 -21 -15 -10 -23 23 -19 62 -20 66 -1 5 25 -28
39 -56 24z"/>
<path d="M1931 1659 c-37 -22 -62 -50 -83 -89 -7 -14 -17 -28 -21 -31 -10 -7
2 -59 14 -59 5 0 9 7 9 16 0 8 4 13 8 10 5 -3 7 8 4 23 -3 23 4 35 45 69 26
23 54 40 61 37 6 -2 12 -1 12 4 0 9 53 12 88 5 12 -2 22 -9 22 -15 0 -6 -6 -6
-19 1 -24 12 -94 -25 -99 -52 -4 -23 4 -23 29 1 23 21 98 36 130 26 17 -6 19
-9 8 -16 -9 -6 -2 -8 21 -6 20 2 34 8 33 15 -2 7 4 12 12 12 17 0 20 -16 5
-25 -11 -7 -4 -25 8 -25 4 0 13 12 20 27 10 22 10 30 -2 41 -12 12 -18 12 -44
-3 l-30 -18 -43 36 c-38 33 -49 37 -98 37 -39 0 -66 -6 -90 -21z"/>
<path d="M1395 1660 c20 -9 20 -9 0 -9 -21 -1 -45 -18 -45 -33 0 -4 7 -5 15
-2 8 4 13 10 10 14 -3 5 5 10 17 12 30 4 36 28 6 27 -22 0 -22 -1 -3 -9z"/>
<path d="M1430 1597 c-8 -17 -29 -41 -47 -52 -18 -11 -32 -26 -33 -33 0 -7 -5
-10 -11 -6 -8 4 -9 -1 -4 -16 5 -16 4 -21 -6 -18 -8 3 -17 18 -20 34 -6 26 -7
26 -8 5 0 -14 -9 -33 -18 -43 -14 -15 -14 -19 -3 -16 8 2 18 10 22 18 5 11 7
8 7 -8 1 -13 -4 -32 -9 -43 -8 -15 -7 -23 5 -35 13 -14 16 -13 26 13 6 15 12
40 14 55 3 25 45 83 45 63 0 -5 7 1 16 13 8 12 21 22 28 22 20 0 67 40 60 51
-3 6 -12 8 -20 5 -8 -3 -13 0 -11 6 5 25 -19 15 -33 -15z"/>
<path d="M2267 1606 c-15 -12 -15 -15 -2 -26 20 -16 19 -27 -2 -33 -11 -3 -7
-5 10 -6 15 0 27 4 27 10 0 5 5 7 10 4 18 -11 10 12 -10 30 -16 14 -17 20 -8
27 7 4 9 8 3 8 -5 -1 -18 -7 -28 -14z"/>
<path d="M1510 1594 c0 -20 27 -24 43 -6 14 16 13 17 -14 17 -16 1 -29 -4 -29
-11z"/>
<path d="M1932 1571 c-12 -10 -22 -25 -22 -32 0 -12 2 -12 9 0 7 11 10 10 14
-5 4 -14 5 -13 6 7 0 14 6 30 13 37 19 19 3 14 -20 -7z"/>
<path d="M2335 1565 c4 -16 20 -42 38 -57 22 -21 26 -28 14 -28 -12 0 -17 -9
-17 -29 0 -17 5 -33 10 -36 17 -10 11 -25 -7 -18 -12 5 -14 3 -9 -8 4 -8 -1
-4 -11 8 -12 15 -22 20 -32 14 -11 -7 -9 -10 8 -16 11 -3 24 -17 27 -31 3 -13
9 -24 13 -24 4 0 8 -7 8 -15 0 -8 -2 -15 -4 -15 -10 0 -53 46 -53 57 0 7 -11
20 -25 29 -19 13 -31 14 -54 6 -16 -6 -32 -8 -35 -5 -3 4 -16 7 -29 8 -14 1
-21 8 -20 19 1 15 -3 14 -23 -5 -18 -16 -24 -19 -24 -8 0 8 6 21 13 29 6 8 0
4 -14 -8 -20 -17 -28 -20 -31 -10 -3 7 -7 1 -10 -14 -4 -23 -2 -26 19 -22 18
4 23 1 17 -8 -6 -10 -3 -9 9 1 15 12 17 11 17 -3 0 -9 5 -16 10 -16 6 0 10 3
10 8 0 4 29 8 65 8 54 1 65 -1 65 -15 0 -22 19 -41 35 -35 7 3 16 1 20 -5 3
-7 0 -8 -9 -5 -18 7 -22 -11 -6 -21 6 -4 25 -37 43 -74 27 -56 35 -65 46 -54
13 14 9 39 -12 82 -10 20 -9 26 5 34 15 10 15 13 0 43 -13 27 -13 36 -2 49 12
14 16 12 41 -17 l28 -33 1 43 c0 28 -5 45 -14 48 -10 4 -13 17 -10 42 l4 37
-9 -34 c-5 -19 -7 -40 -4 -48 3 -7 1 -13 -5 -13 -17 0 -22 30 -9 51 15 24 -6
68 -43 86 -13 6 -30 22 -37 35 -14 22 -14 22 -8 -7z"/>
<path d="M1030 1572 c-21 -2 -44 -13 -58 -28 -13 -13 -30 -24 -38 -24 -8 0
-12 -5 -9 -10 3 -6 -5 -14 -19 -20 -38 -14 -33 -34 17 -59 36 -19 29 -36 -14
-34 -32 1 -33 0 -15 -13 26 -18 56 -18 83 1 27 19 21 40 -13 43 -33 3 -44 10
-44 28 0 19 17 18 29 -3 6 -10 11 -13 11 -7 0 6 -7 17 -15 24 -25 21 -17 33
16 26 25 -5 30 -3 26 9 -4 9 -1 12 9 8 8 -3 25 6 39 21 26 28 40 32 50 16 4
-6 -1 -7 -12 -3 -13 4 -15 3 -7 -6 6 -6 20 -13 31 -15 16 -3 20 0 16 14 -6 23
-39 36 -83 32z"/>
<path d="M2296 1491 c-3 -5 10 -18 29 -30 19 -11 35 -16 35 -11 0 6 -5 10 -12
10 -6 0 -8 3 -5 7 9 8 -12 33 -29 33 -7 0 -15 -4 -18 -9z"/>
<path d="M1077 1464 c-14 -19 -15 -23 -2 -18 8 3 15 2 15 -4 0 -10 -30 -39
-37 -34 -10 7 -15 0 -6 -9 13 -13 57 6 48 22 -4 5 -1 9 6 9 6 0 9 8 6 20 -3
13 0 20 8 20 8 0 16 4 19 9 13 20 -41 6 -57 -15z"/>
<path d="M2935 1465 c-33 -8 -80 -16 -105 -20 -25 -3 -54 -8 -65 -11 -19 -5
-95 -12 -138 -13 -10 -1 -16 -5 -13 -9 5 -8 99 0 154 13 16 4 21 2 17 -6 -8
-12 9 -10 148 14 53 9 67 15 67 29 0 10 -1 18 -2 17 -2 -1 -30 -7 -63 -14z"/>
<path d="M1161 1430 c-12 -11 -27 -18 -32 -15 -14 9 -31 -36 -35 -93 -2 -40 0
-52 9 -43 6 6 10 29 9 52 -2 26 1 38 7 34 6 -3 13 6 17 20 3 13 10 23 14 20 4
-3 15 6 24 20 20 30 18 30 -13 5z"/>
<path d="M2206 1428 c7 -12 52 -10 59 2 4 7 -6 10 -29 8 -19 -1 -32 -6 -30
-10z"/>
<path d="M1001 1368 c-6 -17 -8 -35 -4 -41 15 -24 10 -47 -10 -47 -15 0 -18
-5 -15 -25 3 -14 1 -25 -3 -25 -5 0 -9 -11 -9 -25 0 -14 -4 -25 -8 -25 -5 0
-8 -10 -8 -22 1 -15 -4 -22 -14 -20 -10 3 -9 -3 5 -19 11 -12 15 -19 8 -15 -7
4 -17 -2 -23 -14 -13 -24 -30 -26 -30 -3 0 24 -6 13 -13 -24 -6 -32 -6 -32 13
-13 24 24 39 25 46 5 4 -8 11 -12 16 -9 6 4 9 1 6 -7 -3 -8 -14 -14 -26 -14
-24 -1 -82 -40 -82 -56 0 -5 15 1 33 15 39 30 49 32 41 11 -9 -21 3 -61 24
-81 15 -16 15 -17 0 -12 -11 5 -25 -4 -43 -28 -28 -36 -30 -74 -5 -82 12 -4
13 -2 3 9 -7 7 -13 20 -13 28 0 10 8 8 27 -10 24 -20 25 -21 9 -2 -26 31 -16
46 14 22 14 -12 18 -17 10 -13 -13 7 -13 6 -1 -10 13 -15 13 -19 0 -27 -10 -6
-7 -9 13 -9 21 0 28 -6 33 -30 4 -16 4 -38 0 -49 -8 -25 9 -58 34 -66 13 -4
17 -12 14 -26 -3 -11 0 -38 7 -60 12 -34 17 -39 44 -39 l31 1 -32 14 c-18 8
-33 19 -33 25 0 14 11 13 31 -6 19 -17 49 -13 49 7 0 8 -5 7 -17 -2 -11 -10
-14 -10 -9 -1 4 7 2 12 -8 12 -25 0 -29 21 -7 36 25 18 28 43 4 39 -26 -4 -36
5 -22 21 9 11 15 12 26 3 23 -20 25 -3 2 22 -11 13 -18 18 -14 12 11 -22 -9
-14 -24 8 -11 19 -11 21 3 16 10 -4 16 -1 16 8 0 8 -7 15 -15 15 -8 0 -15 5
-15 12 0 6 -3 9 -6 5 -8 -8 -28 12 -37 36 -6 17 8 55 27 69 11 7 -11 38 -26
38 -6 0 -5 -7 2 -15 10 -13 10 -19 -4 -33 -9 -10 -16 -24 -16 -30 0 -21 -16
-13 -28 13 -17 36 -15 42 11 50 12 3 17 8 11 11 -14 6 -3 67 15 88 8 9 8 16 2
20 -5 4 -12 -3 -16 -14 -3 -11 -13 -20 -21 -20 -9 0 -14 -10 -14 -27 -1 -27
-1 -27 -16 -8 -21 28 -15 70 10 70 11 0 21 6 24 13 2 6 9 12 17 12 19 0 38 27
29 42 -5 7 -9 18 -9 23 -2 17 -18 50 -29 57 -12 8 -19 48 -7 48 5 0 11 9 14
20 3 11 2 20 -2 20 -4 0 -8 6 -8 14 0 8 6 12 13 9 6 -2 15 1 19 6 3 6 11 8 17
5 8 -5 9 1 4 17 -13 45 -13 54 2 77 8 12 13 22 11 23 -34 7 -39 4 -48 -23z m4
-275 c-4 -10 -8 -23 -9 -30 -4 -23 -14 -25 -42 -7 l-27 18 32 8 c17 5 31 13
31 18 0 6 5 10 11 10 7 0 8 -7 4 -17z m44 -379 c23 -29 25 -42 12 -63 -7 -10
-13 -11 -30 -2 -16 9 -21 21 -21 51 0 47 11 50 39 14z m51 -104 c0 -7 -24 -20
-36 -20 -2 0 -4 9 -4 19 0 14 5 18 20 14 11 -3 20 -9 20 -13z"/>
<path d="M1656 1352 c-60 -41 -56 -58 5 -23 53 30 73 51 47 51 -7 -1 -31 -13
-52 -28z"/>
<path d="M1284 1340 c3 -18 6 -42 6 -54 0 -12 6 -30 13 -39 10 -15 12 -8 15
40 2 51 0 60 -19 71 -21 13 -22 13 -15 -18z"/>
<path d="M2482 1338 c-12 -22 -12 -30 2 -56 9 -17 16 -39 17 -49 0 -14 3 -12
12 7 6 14 16 29 22 33 6 4 1 7 -10 5 -17 -3 -21 4 -25 41 -5 44 -5 44 -18 19z"/>
<path d="M891 1303 c-11 -21 -25 -48 -32 -61 -10 -18 -9 -33 5 -78 10 -31 19
-54 21 -52 3 2 -2 26 -11 53 -16 53 -12 95 9 95 7 0 18 9 25 20 7 11 8 20 2
20 -5 0 -7 7 -3 16 4 11 15 15 39 12 19 -2 34 0 34 4 0 4 -16 8 -35 8 -30 0
-37 -5 -54 -37z"/>
<path d="M1233 1300 c-3 -11 -10 -17 -16 -13 -6 3 -7 1 -3 -5 10 -17 36 -15
36 3 0 8 5 15 11 15 5 0 7 5 4 10 -10 16 -27 11 -32 -10z"/>
<path d="M1707 1313 c-4 -3 -15 -7 -25 -8 -35 -3 -62 -17 -62 -32 0 -11 5 -13
18 -8 9 4 37 12 62 17 54 12 59 16 40 28 -18 12 -25 12 -33 3z"/>
<path d="M1445 1290 c-54 -6 -105 -34 -105 -56 0 -11 7 -9 28 6 31 23 100 37
129 26 16 -7 16 -8 2 -16 -9 -5 -33 -12 -54 -14 -21 -3 -42 -12 -47 -20 -5 -8
-15 -21 -22 -29 -12 -11 -6 -14 39 -15 32 -1 59 4 71 13 17 13 16 14 -13 4
-44 -15 -66 -4 -25 12 17 8 32 16 32 20 0 4 10 5 22 1 16 -4 19 -2 13 8 -5 7
4 5 18 -6 15 -10 27 -22 27 -26 0 -5 5 -8 10 -8 19 0 10 23 -20 52 -16 15 -30
32 -30 37 0 14 -21 17 -75 11z"/>
<path d="M2579 1259 c-9 -6 1 -9 31 -10 25 0 72 -2 105 -5 33 -2 88 -4 123 -4
35 0 62 -4 62 -10 0 -5 22 -10 49 -10 45 0 49 2 44 20 -5 19 -7 19 -23 5 -18
-17 -45 -21 -35 -5 3 6 -4 9 -17 9 -13 -1 -68 2 -123 5 -184 14 -202 14 -216
5z"/>
<path d="M150 1250 c-21 -7 -22 -8 -5 -9 11 -1 38 -4 60 -7 28 -5 37 -3 30 4
-15 16 -56 22 -85 12z"/>
<path d="M1030 1250 c-3 -10 -9 -36 -15 -70 -5 -26 -4 -31 4 -20 6 8 11 21 11
29 0 8 8 23 18 34 9 11 12 17 5 14 -6 -4 -14 -1 -16 5 -3 7 -6 11 -7 8z"/>
<path d="M2454 1206 c4 -16 14 -43 22 -60 l14 -31 -6 39 c-3 22 -13 49 -21 60
-15 20 -15 20 -9 -8z"/>
<path d="M2364 1178 c3 -10 1 -18 -4 -18 -6 0 -10 -21 -10 -46 0 -25 3 -43 8
-41 4 3 5 -24 4 -60 -3 -41 1 -75 9 -90 10 -18 10 -26 1 -35 -15 -15 -16 -32
-2 -23 6 4 10 -9 10 -32 0 -22 4 -43 9 -49 11 -10 15 -42 13 -95 -2 -36 -3
-37 -42 -36 -22 1 -36 3 -31 6 4 4 8 22 9 41 l1 35 -14 -26 c-8 -14 -12 -34
-10 -45 2 -10 4 -25 4 -31 1 -7 8 -13 17 -13 9 0 27 -11 40 -25 18 -19 30 -24
48 -19 18 4 28 1 38 -15 8 -13 23 -21 39 -21 15 0 32 -7 39 -15 11 -13 15 -13
33 0 12 8 29 15 39 15 10 0 18 5 18 10 0 6 -4 10 -9 10 -5 0 -12 10 -14 23
l-4 22 -2 -22 c-1 -24 -17 -28 -61 -16 l-25 7 30 8 c24 5 21 6 -17 5 -25 -1
-44 1 -41 6 2 4 0 7 -4 7 -5 0 -18 7 -29 16 -19 15 -19 16 1 10 18 -5 18 -4
-2 10 -17 12 -23 26 -23 54 0 21 -7 57 -15 80 -17 47 -17 48 -15 227 1 107 -2
127 -20 160 -12 21 -19 30 -16 21z"/>
<path d="M1552 1160 c-12 -5 -24 -15 -26 -22 -1 -7 -8 -28 -14 -46 -8 -26 -8
-31 1 -24 7 5 29 10 50 10 38 1 121 42 99 50 -6 2 -20 -1 -31 -7 -14 -8 -21
-8 -24 2 -3 9 -9 7 -24 -5 -27 -25 -43 -22 -43 7 0 18 5 25 20 25 11 0 20 5
20 10 0 6 -1 10 -2 9 -2 0 -13 -4 -26 -9z"/>
<path d="M2102 1121 c2 -9 32 -22 78 -35 55 -15 82 -28 103 -50 20 -22 27 -26
27 -14 0 27 -48 76 -83 83 -17 4 -36 11 -42 15 -5 4 -27 10 -48 12 -29 3 -37
1 -35 -11z"/>
<path d="M1069 1123 c-1 -4 -3 -23 -5 -41 -3 -36 4 -38 11 -3 2 11 6 25 10 30
3 5 1 12 -5 16 -5 3 -11 3 -11 -2z"/>
<path d="M1290 1107 c0 -14 9 -35 21 -48 19 -23 20 -23 10 -2 -6 12 -11 31
-11 42 0 11 -4 23 -10 26 -6 3 -10 -5 -10 -18z"/>
<path d="M2446 1076 c6 -43 22 -91 29 -84 2 2 -5 31 -15 63 -15 47 -19 52 -14
21z"/>
<path d="M1332 993 c1 -18 5 -31 8 -30 8 3 80 -79 80 -91 0 -6 4 -14 10 -17 6
-4 6 3 0 21 -9 23 -8 26 7 20 10 -3 5 3 -10 15 -15 12 -44 42 -63 67 l-35 46
3 -31z"/>
<path d="M1700 1000 c-17 -32 -44 -41 -94 -31 -51 9 -60 -1 -18 -23 42 -22
130 -2 119 27 -2 7 0 20 5 30 5 9 6 17 4 17 -3 0 -10 -9 -16 -20z"/>
<path d="M1917 961 c-39 -25 -97 -101 -96 -124 0 -12 4 -31 8 -42 7 -18 8 -18
18 -1 8 14 14 16 29 8 60 -31 128 -48 224 -55 15 -1 32 -13 42 -29 10 -16 19
-28 21 -28 10 0 -4 74 -19 99 -15 25 -20 28 -33 18 -8 -7 -12 -7 -8 -1 3 6 -3
10 -16 10 -13 -1 -21 4 -19 12 1 6 -2 12 -8 12 -5 0 -10 5 -10 10 0 6 3 9 8 9
4 -1 15 -1 25 0 27 2 20 21 -7 21 -14 0 -28 -4 -31 -10 -12 -19 -57 -10 -81
15 -25 27 -56 37 -34 10 14 -16 6 -35 -16 -35 -27 0 -14 -17 19 -25 17 -4 36
-7 41 -6 4 1 14 -3 21 -9 8 -6 27 -12 43 -14 32 -2 81 -30 71 -40 -3 -4 -53 5
-110 19 -140 36 -133 33 -120 49 15 18 -11 30 -28 13 -8 -8 -11 -7 -11 5 0 16
99 108 115 108 4 0 14 -8 21 -17 11 -15 13 -15 14 -3 0 37 -34 47 -73 21z"/>
<path d="M2506 964 c-17 -16 -22 -44 -8 -44 4 0 13 14 19 30 13 34 11 37 -11
14z"/>
<path d="M2100 942 c0 -22 72 -162 80 -157 5 3 -3 31 -16 63 -27 61 -63 115
-64 94z"/>
<path d="M1454 812 c9 -17 21 -32 26 -32 6 0 9 -6 8 -12 -2 -7 3 -12 11 -10 7
1 33 -15 57 -38 24 -22 47 -40 52 -40 15 0 40 25 47 48 6 20 3 22 -27 21 -18
-1 -25 -3 -15 -6 19 -5 23 -28 7 -38 -16 -10 -50 5 -50 21 0 8 -4 14 -9 14 -5
0 -35 24 -67 52 -52 49 -56 50 -40 20z"/>
<path d="M2341 823 c-1 -26 -17 -38 -25 -21 -3 7 -3 2 1 -12 5 -21 4 -23 -9
-13 -15 13 -28 8 -28 -11 0 -6 4 -5 9 3 6 9 11 10 15 3 10 -16 -24 -73 -72
-121 -50 -51 -48 -66 3 -27 31 24 74 86 60 86 -3 0 3 10 15 22 11 12 20 30 20
39 0 10 5 19 11 21 6 2 9 15 6 28 -4 23 -4 23 -6 3z"/>
<path d="M1896 735 c25 -38 76 -65 124 -65 32 0 41 3 37 14 -3 7 0 19 6 26 10
10 7 10 -11 0 -30 -15 -113 3 -138 31 -25 27 -37 23 -18 -6z"/>
<path d="M2557 725 c5 -16 8 -51 8 -77 0 -32 4 -48 13 -48 6 0 12 9 12 19 0
24 16 36 24 19 3 -7 4 -2 3 12 -1 15 -8 24 -16 22 -8 -2 -11 3 -8 12 4 9 -4
28 -19 43 l-24 28 7 -30z"/>
<path d="M1538 709 c12 -14 22 -33 22 -43 0 -12 5 -16 15 -13 9 4 30 -12 55
-41 23 -25 37 -48 32 -50 -5 -1 -41 7 -78 20 -62 21 -70 26 -74 53 -5 25 -9
29 -30 27 -32 -5 -40 -12 -13 -12 11 0 25 -10 31 -25 7 -14 28 -35 47 -46 20
-12 40 -30 46 -40 9 -17 5 -22 -25 -34 -19 -8 -58 -28 -86 -45 -50 -29 -82
-36 -114 -24 -9 3 -16 10 -16 16 0 5 5 6 12 2 8 -5 9 -2 4 12 -16 41 -18 74
-6 89 10 12 9 15 -4 15 -10 0 -14 -4 -11 -10 3 -5 -4 -10 -16 -10 -17 0 -19
-3 -10 -14 7 -8 14 -30 16 -50 3 -41 -23 -70 -100 -109 -27 -14 -58 -34 -68
-45 -19 -20 -31 -62 -18 -62 14 0 29 22 25 35 -3 7 10 25 29 39 35 27 53 34
42 16 -3 -6 -2 -10 3 -10 6 0 13 7 16 16 4 9 9 14 12 11 3 -3 19 9 35 26 22
25 28 28 29 14 0 -14 4 -16 18 -9 9 5 23 7 29 5 7 -3 77 27 155 66 81 40 160
73 183 75 53 5 73 14 85 37 10 17 9 17 -32 0 -24 -11 -54 -22 -66 -26 -21 -6
-23 -4 -18 13 6 17 3 19 -12 15 -11 -2 -23 0 -26 6 -5 7 2 11 18 11 20 0 30 9
46 41 12 23 19 43 16 46 -2 3 -12 -9 -20 -26 -16 -30 -43 -51 -66 -51 -6 0
-39 26 -73 57 -34 32 -52 46 -39 32z"/>
<path d="M2990 700 c0 -5 -5 -10 -11 -10 -6 0 -17 -7 -26 -16 -9 -8 -22 -13
-29 -10 -8 3 -14 -1 -14 -9 0 -10 11 -15 35 -15 19 0 38 0 42 -1 4 0 9 4 11 9
1 5 -12 7 -30 5 l-33 -3 33 10 c22 7 32 17 32 30 0 11 -2 20 -5 20 -3 0 -5 -4
-5 -10z"/>
<path d="M1414 691 c4 -5 0 -12 -6 -14 -8 -3 -6 -6 5 -6 25 -1 21 -20 -8 -33
-14 -6 -25 -19 -25 -29 0 -22 16 -33 26 -18 4 8 3 9 -4 5 -7 -4 -12 -1 -12 8
0 9 5 16 11 16 22 0 41 30 35 55 -4 14 -11 25 -17 25 -6 0 -8 -4 -5 -9z"/>
<path d="M965 671 c-6 -5 -32 -17 -60 -26 -27 -9 -64 -25 -81 -36 -17 -10 -39
-19 -48 -19 -29 0 -94 -39 -101 -61 -6 -19 -7 -20 -21 -2 -13 17 -13 17 -14
-3 0 -30 -26 -50 -43 -35 -16 13 -28 5 -21 -14 3 -8 -2 -12 -13 -12 -11 1 -17
-4 -15 -12 3 -16 -15 -31 -37 -31 -10 0 -6 9 12 28 19 20 25 34 20 50 -9 36
-39 24 -35 -14 3 -33 -19 -61 -38 -49 -6 4 -8 16 -5 28 5 17 4 19 -4 7 -9 -13
-11 -12 -11 4 0 11 -3 17 -6 13 -8 -8 4 -44 21 -61 12 -12 12 -16 0 -26 -9 -8
-15 -8 -15 -2 0 5 -10 8 -21 5 -20 -6 -20 -7 -5 -18 15 -11 14 -13 -6 -18 -14
-4 -26 0 -35 11 -12 15 -13 14 -3 -6 8 -16 17 -22 28 -17 13 5 14 3 6 -5 -6
-6 -20 -13 -30 -15 -11 -2 -20 -4 -22 -4 -1 -1 2 -11 9 -22 6 -12 7 -19 2 -16
-6 4 -16 -4 -23 -18 -7 -13 -24 -26 -37 -30 -16 -4 -23 -11 -19 -20 3 -8 1
-17 -4 -20 -6 -4 -10 0 -10 7 0 9 -3 10 -8 2 -10 -15 -80 -37 -97 -30 -8 3
-16 0 -17 -7 0 -7 -2 -16 -2 -22 -1 -5 -5 -16 -10 -23 -6 -11 -11 -11 -24 0
-13 12 -14 10 -4 -9 16 -28 15 -33 -3 -33 -8 0 -15 -4 -15 -10 0 -5 9 -10 20
-10 17 0 19 -3 10 -19 -12 -23 -3 -51 16 -51 10 0 11 6 4 26 -8 19 -7 31 2 42
11 13 14 10 18 -23 4 -28 10 -39 24 -41 29 -4 42 7 24 20 -16 12 -58 76 -58
88 0 8 38 26 125 60 33 13 60 29 60 36 0 7 6 17 14 21 7 5 11 14 7 20 -11 18
78 104 153 149 39 23 75 42 80 42 5 0 11 7 15 15 3 8 11 15 18 15 16 1 58 35
58 47 0 12 49 48 78 57 13 5 22 3 22 -3 0 -6 5 -11 11 -11 5 0 7 5 4 10 -3 6
-1 10 5 10 6 0 26 12 45 26 18 14 39 24 47 23 23 -5 58 12 68 32 12 21 10 24
-5 10z"/>
<path d="M1813 672 c-7 -4 -10 -17 -6 -30 3 -12 9 -19 14 -17 4 3 18 -7 29
-23 57 -77 166 -95 278 -46 51 22 60 29 60 51 0 21 -2 23 -10 10 -5 -10 -16
-17 -25 -17 -9 0 -31 -11 -48 -24 -21 -16 -40 -23 -54 -19 -11 3 -21 1 -21 -3
0 -5 -11 -9 -25 -9 -14 0 -25 4 -25 8 0 5 -5 5 -10 2 -6 -4 -17 -1 -25 5 -8 7
-15 10 -15 6 0 -6 -42 28 -71 58 -11 11 -19 28 -19 38 0 19 -8 22 -27 10z"/>
<path d="M2130 672 c0 -7 -4 -11 -9 -8 -10 7 -23 -19 -14 -28 10 -10 25 -7 18
4 -3 6 -1 10 4 10 6 0 11 -9 11 -20 0 -11 5 -20 10 -20 6 0 10 6 10 13 -1 17
-29 65 -30 49z"/>
<path d="M2654 656 c-18 -14 -18 -15 10 -40 17 -14 33 -23 38 -20 4 3 8 0 8
-5 0 -6 5 -11 11 -11 8 0 8 5 -1 15 -7 8 -11 15 -9 16 37 8 59 8 59 -1 0 -5
-5 -10 -11 -10 -5 0 -8 -4 -5 -9 4 -5 0 -12 -6 -14 -7 -3 -3 -6 10 -6 13 -1
21 3 17 8 -3 6 3 14 12 20 10 5 14 13 10 18 -9 8 -14 10 -47 12 -11 0 -20 5
-20 11 0 5 8 7 18 3 14 -5 13 -3 -3 10 -24 20 -39 22 -29 5 6 -10 4 -10 -7 0
-17 16 -31 15 -55 -2z"/>
<path d="M2809 631 c14 -14 30 -21 42 -18 13 4 23 -3 34 -25 8 -17 12 -36 8
-42 -3 -6 0 -6 8 2 7 6 21 12 31 12 12 0 16 5 11 18 -10 25 -25 32 -42 19 -12
-9 -13 -9 -7 1 4 6 2 12 -3 12 -6 0 -11 7 -11 15 0 8 -6 15 -14 15 -7 0 -28 3
-46 7 l-33 6 22 -22z"/>
<path d="M2278 557 c-42 -65 -105 -125 -162 -154 -28 -14 -53 -29 -56 -33 -6
-8 -61 -24 -72 -22 -5 1 -8 -4 -8 -12 0 -26 -33 -28 -53 -4 l-19 23 5 -23 c3
-14 -1 -26 -11 -32 -30 -17 9 -12 69 9 112 39 252 141 313 230 15 22 26 45 25
50 -2 6 -16 -8 -31 -32z"/>
<path d="M5 571 c1 -23 15 -42 15 -22 0 7 5 9 11 5 7 -4 10 1 7 12 -5 27 -35
31 -33 5z"/>
<path d="M910 580 c0 -5 -8 -7 -17 -3 -15 5 -14 3 2 -10 28 -23 44 -21 38 3
-5 20 -23 28 -23 10z"/>
<path d="M2660 578 c0 -16 31 -66 59 -95 19 -20 32 -23 99 -23 42 0 92 -4 111
-10 24 -7 40 -6 55 3 20 11 20 12 -9 15 -16 2 -34 8 -39 13 -6 5 -15 4 -23 -2
-8 -7 -13 -8 -13 -1 0 6 -13 7 -34 2 -18 -4 -41 -3 -50 2 -9 5 -30 6 -47 3
-36 -8 -66 20 -47 43 6 7 9 14 7 15 -43 34 -69 46 -69 35z"/>
<path d="M1224 566 c-5 -13 -14 -16 -30 -12 -17 5 -24 2 -24 -8 0 -8 -6 -17
-12 -19 -8 -3 -6 -6 5 -6 10 -1 17 6 17 17 0 12 2 14 9 4 6 -10 13 -9 32 7 13
10 21 23 17 27 -4 4 -10 -1 -14 -10z"/>
<path d="M254 562 c-7 -4 -8 -15 -3 -27 4 -11 8 -15 8 -8 1 12 20 11 53 -2 13
-5 15 -2 11 15 -4 16 -8 18 -14 9 -6 -11 -9 -10 -15 4 -7 18 -22 22 -40 9z"/>
<path d="M2783 552 c-3 -14 -11 -18 -24 -15 -13 4 -19 0 -19 -11 0 -31 49 -14
51 18 1 16 2 17 6 4 5 -20 20 -23 43 -8 10 7 11 10 3 11 -23 3 -28 4 -41 13
-9 5 -15 2 -19 -12z"/>
<path d="M396 527 c7 -18 -21 -41 -38 -31 -8 4 -10 3 -5 -2 14 -15 58 -12 53
3 -3 7 -1 13 4 13 6 0 10 7 10 15 0 8 -7 15 -15 15 -8 0 -12 -6 -9 -13z"/>
<path d="M2371 483 c-17 -31 -30 -61 -29 -65 2 -5 18 21 36 57 39 80 35 86 -7
8z"/>
<path d="M1310 511 c0 -8 -6 -11 -16 -7 -10 4 -13 2 -8 -6 5 -7 -1 -9 -20 -6
-14 3 -29 2 -31 -2 -3 -4 -22 -4 -42 1 -49 11 -62 11 -41 -1 9 -6 43 -13 75
-16 51 -6 60 -4 77 15 11 12 16 24 13 28 -4 3 -7 1 -7 -6z"/>
<path d="M270 495 c-7 -8 -16 -12 -21 -9 -5 3 -6 -3 -2 -12 4 -11 8 -13 11 -6
2 7 12 12 21 12 10 0 18 7 18 15 0 19 -11 19 -27 0z"/>
<path d="M1707 475 c-40 -83 -30 -147 25 -176 19 -10 17 -5 -9 25 -39 43 -39
46 -13 121 23 67 21 81 -3 30z"/>
<path d="M2274 483 c-12 -16 -27 -39 -34 -53 -11 -22 -11 -23 2 -10 17 17 62
90 56 90 -2 0 -13 -12 -24 -27z"/>
<path d="M202 460 c-9 -15 -8 -18 6 -15 9 1 20 -2 23 -7 4 -6 9 -6 12 -1 3 5
-2 16 -12 25 -16 14 -19 14 -29 -2z"/>
<path d="M1030 465 c0 -12 15 -15 73 -14 76 1 66 10 -25 22 -39 5 -48 4 -48
-8z"/>
<path d="M999 368 c3 -44 5 -50 16 -35 6 9 15 14 18 10 4 -3 7 -2 7 3 0 9 -37
74 -42 74 -2 0 -1 -23 1 -52z"/>
<path d="M195 391 c-11 -5 -24 -6 -29 -3 -5 3 -6 0 -2 -6 4 -7 17 -8 36 -2 28
8 59 -8 44 -23 -3 -3 4 -3 17 0 17 5 21 3 17 -8 -4 -10 1 -15 13 -15 17 0 17
2 2 18 -9 10 -20 18 -25 18 -5 0 -16 7 -24 15 -17 17 -20 17 -49 6z"/>
<path d="M2470 368 c-6 -18 -14 -66 -16 -106 -4 -80 -8 -92 -30 -92 -8 0 -14
-5 -14 -11 0 -6 -13 -9 -28 -8 -18 2 -36 -4 -47 -14 -9 -10 -37 -23 -61 -29
-24 -7 -44 -15 -44 -19 0 -3 -22 -9 -50 -13 -27 -4 -52 -12 -56 -18 -9 -14 97
-1 140 17 17 7 47 20 68 29 20 9 43 16 50 16 8 0 29 7 45 15 33 17 43 44 43
124 0 25 5 66 11 90 12 53 6 64 -11 19z"/>
<path d="M1324 364 c-4 -16 -11 -32 -17 -35 -6 -5 -5 -30 3 -73 7 -36 10 -80
8 -96 -4 -26 -2 -30 19 -30 18 0 23 5 21 18 -2 9 -10 16 -17 14 -7 -1 -10 2
-6 8 3 6 10 8 14 6 4 -3 8 9 9 25 1 17 -2 28 -7 25 -5 -3 -11 1 -15 9 -3 8 -1
17 5 20 9 6 4 123 -6 133 -2 2 -7 -9 -11 -24z"/>
<path d="M342 337 c0 -36 2 -38 9 -19 5 13 7 28 4 32 -3 5 0 10 7 12 8 3 6 7
-4 11 -14 5 -17 -1 -16 -36z"/>
<path d="M187 364 c-3 -4 -2 -14 3 -24 7 -13 4 -20 -15 -28 -35 -16 -28 -43
13 -41 16 0 16 1 0 7 -18 7 -10 35 8 31 26 -5 43 2 38 16 -4 8 -10 12 -15 9
-5 -3 -13 4 -17 16 -4 11 -11 18 -15 14z"/>
<path d="M900 335 c0 -17 16 -20 25 -5 9 15 37 -9 31 -27 -4 -9 3 -13 19 -13
l24 0 -26 26 c-31 31 -73 42 -73 19z"/>
<path d="M647 327 c-1 -5 -13 -11 -26 -12 -12 -1 -26 -8 -31 -15 -11 -18 -42
-22 -52 -7 -6 9 -11 8 -18 -3 -5 -8 -10 -19 -10 -25 0 -5 4 -3 10 5 8 12 10
12 15 -2 4 -10 4 -22 0 -28 -3 -5 1 -10 9 -10 21 0 20 -16 -1 -30 -17 -11 -17
-11 -1 -6 14 4 17 -1 16 -32 -1 -36 -27 -72 -51 -72 -6 0 -7 -3 -4 -7 4 -3 0
-14 -8 -23 -9 -10 -13 -25 -9 -34 7 -18 34 -22 34 -5 0 5 -4 7 -10 4 -23 -14
-7 15 25 46 19 19 35 40 35 47 0 15 22 16 38 0 6 -6 15 -8 19 -4 4 4 0 12 -9
17 -10 5 -14 17 -11 29 6 21 -12 28 -20 8 -2 -7 -8 -9 -13 -5 -5 5 -1 14 8 21
10 7 15 16 12 19 -3 3 -3 11 1 18 5 8 12 2 21 -17 10 -24 12 -25 10 -6 -1 12
-7 27 -13 33 -27 27 18 92 58 82 10 -3 19 -1 19 5 0 14 -38 22 -43 9z"/>
<path d="M809 338 c-6 -13 -3 -75 3 -71 5 2 6 13 3 23 -5 17 -1 18 32 15 21
-3 30 -2 20 1 -9 3 -14 10 -11 16 4 6 2 8 -4 4 -6 -3 -13 -2 -17 4 -5 9 -23
14 -26 8z"/>
<path d="M1194 273 c-21 -27 -52 -63 -68 -82 -25 -27 -27 -31 -9 -22 22 11 75
72 108 124 27 43 10 32 -31 -20z"/>
<path d="M2100 308 c-19 -5 -57 -16 -84 -24 -26 -8 -57 -14 -67 -14 -10 0 -33
-9 -51 -20 -18 -11 -53 -21 -78 -22 -39 -1 -41 -2 -11 -5 l34 -4 -48 -35 c-27
-19 -53 -34 -59 -34 -17 0 -126 -44 -126 -51 0 -11 181 61 208 82 14 10 29 19
34 19 5 0 24 11 41 24 41 31 129 56 151 44 11 -6 16 -6 14 3 -3 14 79 35 90
24 14 -14 -54 -50 -112 -61 l-61 -12 60 -1 c63 -1 96 13 115 49 10 18 4 51 -9
49 -3 -1 -22 -5 -41 -11z"/>
<path d="M682 302 c-19 -3 -21 -6 -11 -18 13 -16 34 -19 24 -4 -3 5 0 7 8 4 8
-3 18 -1 21 4 7 12 -12 19 -42 14z"/>
<path d="M407 283 c-23 -22 25 -24 62 -3 12 7 7 9 -20 10 -20 0 -39 -3 -42 -7z"/>
<path d="M910 281 c27 -15 70 -22 70 -11 0 5 -8 10 -17 11 -10 0 -29 2 -43 5
-17 2 -20 1 -10 -5z"/>
<path d="M696 249 c-16 -16 -35 -28 -42 -25 -8 3 -11 0 -8 -9 8 -19 37 -24 52
-9 9 10 8 14 -6 17 -16 4 -16 5 1 6 9 0 17 7 17 14 0 8 2 9 8 1 12 -19 52 -27
52 -11 0 8 -7 18 -16 21 -8 3 -12 10 -9 16 13 22 -22 7 -49 -21z"/>
<path d="M852 268 c-6 -6 -12 -8 -12 -4 0 5 -7 3 -15 -4 -21 -18 -19 -25 9
-25 13 0 22 3 20 7 -2 3 1 8 7 10 7 2 10 10 8 16 -3 10 -7 10 -17 0z"/>
<path d="M222 253 c-6 -11 -11 -12 -16 -4 -4 6 -13 11 -19 11 -7 0 -4 -7 7
-15 11 -8 15 -19 10 -27 -4 -7 1 -6 12 4 10 9 30 18 44 20 l24 3 -27 12 c-22
10 -28 10 -35 -4z"/>
<path d="M893 243 c0 -8 7 -11 14 -8 8 3 21 -1 28 -9 8 -8 25 -11 41 -8 28 5
28 5 5 14 -13 4 -27 6 -32 2 -5 -3 -9 -1 -9 4 0 5 -10 12 -23 14 -16 3 -24 0
-24 -9z"/>
<path d="M1125 235 c-16 -14 -35 -25 -40 -25 -10 0 -41 -58 -34 -64 2 -2 28
23 58 55 58 65 61 71 16 34z"/>
<path d="M452 222 c-17 -18 -21 -27 -13 -35 8 -8 11 -7 11 3 0 13 2 13 11 0 9
-12 10 -12 5 4 -4 10 -1 25 5 33 20 24 5 20 -19 -5z"/>
<path d="M2182 241 c-11 -6 -11 -10 0 -18 9 -7 18 -4 31 9 16 17 16 18 0 18
-10 0 -24 -4 -31 -9z"/>
<path d="M2368 243 c-10 -2 -18 -9 -18 -14 0 -11 -36 -12 -43 -1 -2 4 -3 2 -1
-4 2 -11 -58 -34 -90 -34 -9 0 -16 -4 -16 -10 0 -5 -8 -10 -17 -10 -10 -1 -31
-7 -48 -15 l-30 -15 40 6 c47 7 225 63 243 77 13 10 17 28 5 26 -5 -1 -16 -3
-25 -6z"/>
<path d="M382 228 c2 -7 8 -16 13 -20 6 -5 5 -8 -2 -8 -7 0 -13 -4 -13 -10 0
-5 6 -10 14 -10 9 0 13 -8 10 -22 -5 -23 -5 -23 5 -1 11 25 1 75 -17 81 -7 2
-11 -2 -10 -10z"/>
<path d="M771 216 l-23 -24 23 -4 c13 -2 25 -10 27 -19 4 -20 -28 -35 -38 -18
-6 8 -9 8 -15 -1 -4 -7 1 -14 15 -17 13 -3 19 -11 16 -19 -3 -8 1 -14 8 -14 8
0 16 5 18 12 3 8 10 8 26 -4 12 -8 20 -18 17 -21 -3 -4 0 -3 7 2 8 8 8 14 -2
26 -10 13 -9 15 6 15 13 1 8 6 -13 15 -18 8 -33 17 -33 20 0 3 4 4 9 0 5 -3
13 -1 16 5 4 7 11 7 18 2 7 -5 28 -10 47 -10 20 0 29 2 22 7 -7 4 -10 15 -6
24 6 17 -9 19 -46 4 -32 -13 -55 -12 -52 2 2 8 -3 11 -12 8 -9 -4 -18 -2 -21
3 -3 4 1 10 7 13 7 2 10 7 7 11 -3 3 -16 -5 -28 -18z"/>
<path d="M2685 223 c-15 -36 -34 -129 -35 -163 0 -20 -5 -41 -12 -48 -9 -9 -9
-12 0 -12 7 0 12 5 12 11 0 5 4 8 9 4 6 -3 13 16 16 42 3 27 10 77 15 113 10
66 8 84 -5 53z"/>
<path d="M89 223 c-1 -5 -1 -11 0 -15 0 -5 -9 -9 -21 -9 -17 -1 -19 -2 -5 -6
9 -2 17 -9 17 -14 0 -5 4 -9 10 -9 5 0 7 7 4 15 -4 8 -2 15 3 15 5 0 10 7 10
15 0 15 -16 22 -18 8z"/>
<path d="M0 202 c0 -26 12 -28 34 -6 19 19 21 31 3 15 -10 -8 -17 -7 -25 1 -9
9 -12 7 -12 -10z"/>
<path d="M1016 197 c-5 -23 -96 -77 -96 -57 0 6 -5 10 -11 10 -8 0 -8 -5 1
-15 7 -8 16 -12 21 -10 4 3 12 -3 18 -12 9 -17 10 -17 16 0 9 21 45 23 45 2 0
-10 -14 -17 -40 -21 -36 -6 -45 -14 -41 -36 0 -4 -5 -5 -13 -2 -7 3 -16 -2
-19 -10 -4 -9 -14 -12 -26 -9 -12 3 -19 9 -16 13 3 5 1 11 -5 15 -5 3 -10 1
-10 -6 0 -7 -7 -4 -16 7 -8 10 -13 13 -9 7 4 -9 -2 -13 -19 -13 -27 0 -35 15
-13 23 7 3 5 6 -5 6 -10 1 -19 -3 -19 -9 -1 -5 -2 -14 -3 -19 0 -5 -4 -13 -8
-17 -15 -14 -8 -26 7 -14 9 8 28 10 52 6 98 -17 124 -16 133 7 5 12 9 18 9 13
1 -5 9 -2 18 5 15 13 16 11 10 -21 -4 -21 -3 -30 2 -22 7 11 9 11 14 -2 11
-27 30 -19 23 9 -4 14 -2 33 3 43 5 10 6 36 1 61 -6 36 -5 46 11 59 10 9 16
19 13 24 -9 15 -22 8 -28 -15z"/>
<path d="M2949 191 c-25 -15 -59 -50 -77 -78 -35 -54 -52 -113 -33 -113 6 0
11 8 11 18 1 51 98 182 136 182 8 0 14 5 14 10 0 14 0 14 -51 -19z"/>
<path d="M453 151 c3 -14 1 -18 -9 -14 -8 3 -14 0 -14 -6 0 -6 11 -11 25 -11
14 0 25 -4 25 -10 0 -5 -7 -6 -17 -3 -11 4 -14 3 -9 -5 10 -17 -14 -15 -34 3
-15 13 -17 13 -17 0 0 -8 3 -13 5 -10 8 7 33 -16 27 -25 -3 -4 5 -10 16 -13
15 -4 19 -2 15 9 -3 8 1 14 10 14 12 0 15 7 12 30 -4 24 -2 27 9 19 10 -9 13
-8 13 4 0 8 -14 20 -31 26 -28 10 -31 9 -26 -8z"/>
<path d="M1099 102 c-32 -51 -61 -116 -46 -102 10 10 87 153 84 156 -1 2 -19
-23 -38 -54z"/>
<path d="M683 138 c-18 -5 -33 -13 -33 -20 0 -7 6 -6 16 3 10 8 18 9 22 2 4
-5 16 -15 28 -21 17 -9 21 -8 21 4 0 8 -6 13 -13 10 -8 -3 -16 -1 -19 4 -3 5
3 10 12 12 10 2 14 6 8 9 -5 3 -25 2 -42 -3z"/>
<path d="M312 118 c-7 -7 -12 -17 -12 -24 0 -6 -6 -12 -12 -11 -35 1 -47 -4
-45 -21 1 -23 27 -25 27 -2 0 13 6 16 24 13 15 -3 25 1 29 11 4 9 1 16 -5 16
-7 0 -6 5 2 15 15 18 9 20 -8 3z"/>
<path d="M2460 114 c0 -11 7 -41 14 -69 l14 -50 1 56 c1 39 -4 60 -14 69 -12
10 -15 9 -15 -6z"/>
<path d="M1384 108 c-3 -5 -9 -6 -14 -3 -5 3 -11 1 -15 -5 -4 -6 -10 -8 -14
-6 -4 3 -8 -5 -8 -17 -2 -15 0 -18 6 -9 5 8 10 13 12 11 7 -4 79 25 79 32 0
10 -40 7 -46 -3z"/>
<path d="M1544 77 c-35 -52 -46 -77 -34 -77 5 0 10 6 10 13 0 8 4 7 10 -3 11
-16 12 -12 13 37 0 15 9 27 28 35 15 7 25 16 23 20 -10 16 -30 7 -50 -25z"/>
<path d="M616 74 c-20 -14 -36 -28 -36 -31 0 -4 5 -2 12 5 19 19 32 14 17 -5
-12 -16 -11 -16 15 1 27 17 30 17 41 2 7 -9 16 -16 20 -16 4 0 2 7 -5 15 -10
12 -10 15 3 15 22 0 11 27 -13 33 -10 3 -35 -6 -54 -19z"/>
<path d="M1355 38 c-11 -6 -22 -14 -25 -18 -3 -4 -12 -10 -20 -13 -12 -4 -11
-6 3 -6 10 -1 30 10 45 24 29 27 28 31 -3 13z"/>
<path d="M2390 40 c-32 -17 -118 -30 -188 -29 -40 1 -76 -1 -79 -5 -4 -3 48
-6 114 -6 113 0 183 12 183 30 0 14 -14 18 -30 10z"/>
<path d="M625 20 c-3 -5 -19 -7 -34 -4 -16 3 -32 1 -35 -5 -10 -16 66 -11 82
6 7 7 9 13 3 13 -5 0 -13 -4 -16 -10z"/>
</g>
</svg>
